<svg xmlns="http://www.w3.org/2000/svg" viewBox="0 0 24 24" id="google-podcasts" fill ="#fff"><path d="M12 24a1.94 1.94 0 0 1-1.938-1.937v-1.576A1.94 1.94 0 0 1 12 18.549c.039 0 .078.004.114.013a1.94 1.94 0 0 1 1.823 1.934v1.571A1.941 1.941 0 0 1 12 24zm-.08-4.447a.939.939 0 0 0-.857.934v1.576a.937.937 0 0 0 1.875.002v-1.569a.938.938 0 0 0-.938-.937.529.529 0 0 1-.08-.006zm.08-1.441a1.94 1.94 0 0 1-1.938-1.937V7.811A1.94 1.94 0 0 1 12 5.874c.038 0 .076.004.111.012a1.94 1.94 0 0 1 1.826 1.935v8.355A1.938 1.938 0 0 1 12 18.112zm-.078-11.235a.938.938 0 0 0-.859.934v8.365a.938.938 0 0 0 1.876 0V7.82a.939.939 0 0 0-.938-.938.41.41 0 0 1-.079-.005zm5.177 12.548a1.94 1.94 0 0 1-1.938-1.937v-5.107c0-1.068.869-1.938 1.938-1.938s1.938.869 1.938 1.938v5.107a1.94 1.94 0 0 1-1.938 1.937zm0-7.982a.939.939 0 0 0-.938.938v5.107a.938.938 0 0 0 1.876 0v-5.107a.94.94 0 0 0-.938-.938zM6.901 19.416a1.94 1.94 0 0 1-1.938-1.938v-1.562a1.94 1.94 0 0 1 1.938-1.938c.039 0 .078.004.114.013a1.94 1.94 0 0 1 1.823 1.934v1.552a1.94 1.94 0 0 1-1.937 1.939zm-.08-4.434a.939.939 0 0 0-.857.934v1.562a.939.939 0 0 0 1.876 0v-1.552a.938.938 0 0 0-.938-.937.428.428 0 0 1-.081-.007zM12 5.436a1.94 1.94 0 0 1-1.938-1.937V1.937C10.062.869 10.932 0 12 0s1.938.869 1.938 1.937v1.562A1.94 1.94 0 0 1 12 5.436zM12 1a.938.938 0 0 0-.938.937v1.562a.938.938 0 0 0 1.876 0V1.937A.938.938 0 0 0 12 1zM6.901 13.58a1.94 1.94 0 0 1-1.938-1.937V6.507a1.94 1.94 0 0 1 1.826-1.934.51.51 0 0 1 .111-.013 1.94 1.94 0 0 1 1.938 1.938v5.145a1.938 1.938 0 0 1-1.937 1.937zm.079-8.016a.506.506 0 0 1-.079.006.938.938 0 0 0-.938.937v5.136a.938.938 0 0 0 1.876 0V6.498a.94.94 0 0 0-.859-.934zm10.119 4.452a1.94 1.94 0 0 1-1.938-1.938V6.507c0-1.068.869-1.937 1.938-1.937s1.938.869 1.938 1.937v1.571a1.941 1.941 0 0 1-1.938 1.938zm0-4.446a.938.938 0 0 0-.938.937v1.571a.939.939 0 0 0 1.876 0V6.507a.94.94 0 0 0-.938-.937zm4.963 9.141a1.94 1.94 0 0 1-1.938-1.937v-1.562c0-1.068.869-1.937 1.938-1.937S24 10.144 24 11.212v1.562a1.94 1.94 0 0 1-1.938 1.937zm0-4.436a.938.938 0 0 0-.938.937v1.562a.938.938 0 0 0 1.876 0v-1.562a.938.938 0 0 0-.938-.937zM1.938 14.711A1.94 1.94 0 0 1 0 12.774v-1.562c0-1.068.869-1.937 1.938-1.937s1.938.869 1.938 1.937v1.562a1.94 1.94 0 0 1-1.938 1.937zm0-4.436a.938.938 0 0 0-.938.937v1.562a.938.938 0 0 0 1.876 0v-1.562a.94.94 0 0 0-.938-.937z"></path></svg>