<svg xmlns="http://www.w3.org/2000/svg" width="24" height="24" id="soundcloud" fill="#fff"><path d="M19.7 23.5H4.3c-2.1 0-3.8-1.7-3.8-3.8V4.3C.5 2.2 2.2.5 4.3.5h15.3c2.1 0 3.8 1.7 3.8 3.8v15.3c.1 2.2-1.6 3.9-3.7 3.9zM4.3 1.5c-1.6 0-2.8 1.3-2.8 2.8v15.3c0 1.6 1.3 2.8 2.8 2.8h15.3c1.6 0 2.8-1.3 2.8-2.8V4.3c0-1.6-1.3-2.8-2.8-2.8H4.3z"></path><path d="M17.9 15.6h-4.5c-.4 0-.7-.3-.7-.7V9.3c0-.2.1-.5.5-.7.4-.2.8-.2 1.2-.2 1.6 0 2.9 1.1 3.3 2.7 1.2-.1 2.3.9 2.3 2.2 0 1.3-.9 2.3-2.1 2.3zm-4.2-6.1v5.1h4.2c.6 0 1.1-.6 1.1-1.2 0-.7-.5-1.3-1.1-1.3-.1 0-.3 0-.4.1-.1.1-.3.1-.5 0-.1-.1-.2-.2-.2-.4-.1-1.3-1.1-2.4-2.4-2.4-.2 0-.5 0-.7.1zM8.9 15.6c-.3 0-.6-.3-.6-.6l-.1-1.6.1-3.1c0-.3.3-.6.6-.6s.6.3.6.6c0 .2-.1.4-.2.5l-.1 2.6.1 1.1c.2.1.3.3.3.5-.1.3-.4.6-.7.6zM6.7 15.5c-.3 0-.5-.2-.6-.5L6 13.4l.1-1.7c0-.3.3-.5.6-.5s.5.2.6.5c0 .2-.1.3-.2.4L7 13.4l.1 1.1c.1.1.2.3.2.4-.1.4-.3.6-.6.6zM4.6 15.1c-.3 0-.5-.2-.6-.5v-.9l.1-.8c0-.3.3-.5.6-.5s.5.2.6.5c0 .2 0 .3-.1.4l-.2.4.1.5c.1.1.2.3.1.4 0 .3-.3.5-.6.5zM11.2 15.6c-.4 0-.7-.3-.7-.7l-.1-1.5.1-3.2c0-.4.3-.7.7-.7.4 0 .7.3.7.7 0 .2-.1.4-.3.5l-.1 2.7.1 1c.2.1.4.3.3.5-.1.4-.3.7-.7.7z"></path></svg>