<svg xmlns="http://www.w3.org/2000/svg" enable-background="new 0 0 48 48" viewBox="0 0 48 48" fill="fff"><path d="M25,31.01V20.94c4.49-0.5,8-4.32,8-8.94c0-4.96-4.04-9-9-9s-9,4.04-9,9c0,4.62,3.51,8.44,8,8.94v10.07
		C12.9,31.16,3,33.55,3,38c0,4.6,10.56,7,21,7s21-2.4,21-7C45,33.55,35.1,31.16,25,31.01z M17,12c0-3.86,3.14-7,7-7s7,3.14,7,7
		s-3.14,7-7,7S17,15.86,17,12z M24,43c-11.77,0-19-2.91-19-5c0-2.03,6.83-4.82,18-4.98V38c0,0.55,0.45,1,1,1s1-0.45,1-1v-4.98
		c11.17,0.16,18,2.96,18,4.98C43,40.09,35.77,43,24,43z"/><path d="M25,9c0-0.55-0.45-1-1-1c-2.21,0-4,1.79-4,4c0,0.55,0.45,1,1,1s1-0.45,1-1c0-1.1,0.9-2,2-2C24.55,10,25,9.55,25,9z"/></svg>