<svg xmlns="http://www.w3.org/2000/svg" width="32" height="32" fill= "#fff"><path d="M1.488 6.514v14.183h2.239v2.397H5.97v2.394h24.54V11.305h-2.243V8.91h-2.239V6.514H1.49zm1 1H25.03v12.183H2.49V7.514zM6.021 8.91l-.078.406c-.19.997-.917 1.754-1.822 1.948l-.394.086v4.513l.394.086c.902.195 1.622.949 1.815 1.942l.08.406h7.705l.017.002.018-.002c2.377-.002 4.177-.006 7.332 0h.414l.078-.406c.192-.993.913-1.746 1.815-1.942l.394-.086V11.35l-.394-.086c-.906-.194-1.632-.95-1.823-1.948l-.076-.406H6.021zm.698 1h4.31a4.78 4.78 0 0 0-1.732 3.695c0 1.499.684 2.83 1.732 3.692H6.713c-.33-.993-1.036-1.743-1.986-2.1v-3.18c.954-.356 1.663-1.11 1.992-2.107zm7.02 0c1.89 0 3.443 1.633 3.443 3.695 0 2.057-1.544 3.682-3.426 3.692h-.035c-1.882-.01-3.424-1.635-3.424-3.692 0-2.062 1.551-3.695 3.441-3.695zm2.708 0h4.35c.329.996 1.038 1.751 1.992 2.108v3.18c-.95.356-1.657 1.106-1.986 2.099-1.852-.004-2.798 0-4.356 0a4.77 4.77 0 0 0 1.735-3.692 4.778 4.778 0 0 0-1.735-3.695zm9.582 0h1.239v12.184H4.727v-1.397h21.302V9.91zm-12.51.799v.512a1.889 1.889 0 0 0-.529.14c-.157.07-.292.159-.404.268a1.149 1.149 0 0 0-.254.385 1.348 1.348 0 0 0-.086.49c0 .194.034.364.1.512.069.148.166.279.293.392.129.113.284.212.465.297.183.083.39.156.619.219.172.056.317.115.437.176.123.06.222.127.297.199a.67.67 0 0 1 .168.232.775.775 0 0 1-.012.592.667.667 0 0 1-.19.24.888.888 0 0 1-.302.155 1.418 1.418 0 0 1-.73.01.777.777 0 0 1-.297-.151.769.769 0 0 1-.215-.291 1.124 1.124 0 0 1-.082-.459h-.756c0 .246.038.456.115.633.078.174.182.318.31.433a1.4 1.4 0 0 0 .452.266c.17.06.343.101.523.121v.42h.6v-.42c.215-.022.408-.066.58-.13.172-.066.32-.154.44-.262a1.135 1.135 0 0 0 .377-.891c0-.192-.031-.36-.094-.506a1.108 1.108 0 0 0-.28-.387 1.804 1.804 0 0 0-.457-.289 4.228 4.228 0 0 0-.623-.23 3.609 3.609 0 0 1-.464-.18 1.427 1.427 0 0 1-.301-.197.637.637 0 0 1-.168-.229.97.97 0 0 1 0-.596.647.647 0 0 1 .404-.394c.1-.037.22-.057.357-.057.132 0 .25.027.354.077.103.05.189.12.258.209s.12.194.154.316c.037.122.057.254.057.4h.752c0-.442-.111-.79-.332-1.045-.218-.256-.527-.411-.928-.466v-.514h-.607zm14.749 1.596h1.244v12.183H6.97v-1.394h21.297v-10.79z" color="#000"  style="line-height:normal;text-indent:0;text-align:start;text-decoration-line:none;text-decoration-style:solid;text-decoration-color:#000;text-transform:none;block-progression:tb;white-space:normal;isolation:auto;mix-blend-mode:normal;solid-color:#000;solid-opacity:1"/></svg>