<svg xmlns="http://www.w3.org/2000/svg" fill="#fff" fill-rule="evenodd" stroke-linejoin="round" stroke-miterlimit="2" clip-rule="evenodd" viewBox="0 0 100 101"><path d="M14.069,71.235l-6.167,0c-3.812,0 -6.902,-3.09 -6.902,-6.902l0,-35.196c0,-3.812 3.09,-6.902 6.902,-6.902l46.956,0c3.465,0 6.333,2.553 6.827,5.88l9.279,0c5.609,0 11.707,3.259 14.063,8.349c0.912,1.972 1.896,4.097 2.699,5.833c0.65,1.404 1.821,2.5 3.266,3.055c0.001,0 0.001,0 0.002,0.001c5.425,2.083 8.006,7.294 8.006,13.106l0,6.777c0,3.313 -2.686,5.999 -5.999,5.999l-4.8,0c-1.602,4.391 -5.818,7.53 -10.761,7.53c-4.943,0 -9.159,-3.139 -10.761,-7.53l-31.089,0c-1.601,4.391 -5.817,7.53 -10.76,7.53c-4.943,0 -9.159,-3.139 -10.761,-7.53Zm10.761,-11.45c4.156,0 7.53,3.374 7.53,7.53c-0,4.156 -3.374,7.53 -7.53,7.53c-4.156,0 -7.53,-3.374 -7.53,-7.53c-0,-4.156 3.374,-7.53 7.53,-7.53Zm52.61,0c4.156,0 7.53,3.374 7.53,7.53c-0,4.156 -3.374,7.53 -7.53,7.53c-4.156,0 -7.53,-3.374 -7.53,-7.53c-0,-4.156 3.374,-7.53 7.53,-7.53Zm11.45,7.53l4.111,0c1.148,0 2.079,-0.931 2.079,-2.079l-0,-6.777c-0,-4.189 -1.581,-7.945 -5.492,-9.447c-0,0 -0.001,0 -0.001,-0.001c-2.397,-0.92 -4.341,-2.738 -5.419,-5.068c-0.803,-1.736 -1.786,-3.861 -2.699,-5.833c-1.714,-3.704 -6.423,-6.075 -10.505,-6.075l-9.204,0l-0,35.28l4.23,0c-0,-6.32 5.13,-11.45 11.45,-11.45c6.32,0 11.45,5.13 11.45,11.45Zm-52.61,0l21.56,0l-0,-38.178c-0,-1.647 -1.335,-2.982 -2.982,-2.982l-46.956,0c-1.647,0 -2.982,1.335 -2.982,2.982l-0,35.196c-0,1.647 1.335,2.982 2.982,2.982l5.478,0c-0,-6.32 5.13,-11.45 11.45,-11.45c6.319,0 11.45,5.13 11.45,11.45Zm14.7,-17.64l-19.6,0c-1.082,0 -1.96,0.878 -1.96,1.96c-0,1.082 0.878,1.96 1.96,1.96l19.6,0c1.082,0 1.96,-0.878 1.96,-1.96c-0,-1.082 -0.878,-1.96 -1.96,-1.96Zm14.7,-1.94c-0,2.165 1.755,3.92 3.92,3.92l5.585,0c1.084,0 2.119,-0.449 2.86,-1.24c0.742,-0.791 1.122,-1.854 1.051,-2.935c-0,0 -0.001,-0.027 -0.004,-0.076c-0.321,-4.908 -3.608,-9.122 -8.291,-10.628l-0.001,0c-1.193,-0.383 -2.497,-0.174 -3.509,0.564c-1.012,0.738 -1.611,1.915 -1.611,3.168l-0,7.227Zm3.92,0l5.585,0c-0,0 -0.002,-0.026 -0.005,-0.075c-0.216,-3.303 -2.428,-6.139 -5.579,-7.152l-0.001,0l-0,7.227Zm-18.62,-7.86l-29.4,0c-1.082,0 -1.96,0.878 -1.96,1.96c-0,1.082 0.878,1.96 1.96,1.96l29.4,0c1.082,0 1.96,-0.878 1.96,-1.96c-0,-1.082 -0.878,-1.96 -1.96,-1.96Zm-0,-9.8l-39.2,0c-1.082,0 -1.96,0.878 -1.96,1.96c-0,1.082 0.878,1.96 1.96,1.96l39.2,0c1.082,0 1.96,-0.878 1.96,-1.96c-0,-1.082 -0.878,-1.96 -1.96,-1.96Z"/></svg>