<svg xmlns="http://www.w3.org/2000/svg" fill="#fff" data-name="Layer 1" viewBox="0 0 128 128"><path d="M66 98.14807V63.80634a10.56122 10.56122 0 0 1-4 0V98.14807a15 15 0 1 0 4 0zm-2 25.85175a11.00043 11.00043 0 1 1 11-11.00043A11.00021 11.00021 0 0 1 64 123.99982zM71 52.997a7 7 0 1 0-7 7.00024A7.00809 7.00809 0 0 0 71 52.997zm-10 0a3 3 0 1 1 3 3.00006A3 3 0 0 1 61 52.997zM15 101.999A14.99246 14.99246 0 0 0 17 72.147V60.99731a6.00669 6.00669 0 0 1 6-6.00024H53.1911a10.56217 10.56217 0 0 1 0-4.00018H23A10.01167 10.01167 0 0 0 13 60.99731V72.147A14.99246 14.99246 0 0 0 15 101.999zm0-26.001A11.00043 11.00043 0 1 1 4 86.99835 11.00021 11.00021 0 0 1 15 75.99792zM115 72.147V60.99731a10.01167 10.01167 0 0 0-10-10.00043H74.8089a10.56217 10.56217 0 0 1 0 4.00018H105a6.00669 6.00669 0 0 1 6 6.00024V72.147a15 15 0 1 0 4 0zm-2 25.85175a11.00043 11.00043 0 1 1 11-11.00043A11.00021 11.00021 0 0 1 113 97.99878zM50.99335 24.72913L62 31.1405V42.18762a10.56122 10.56122 0 0 1 4 0V31.1405l11.00665-6.41138A2.00014 2.00014 0 0 0 78 23.00085V8.99011a2.00006 2.00006 0 0 0-.99335-1.72827l-12-6.99a1.99972 1.99972 0 0 0-2.01331 0l-12 6.99A2.00006 2.00006 0 0 0 50 8.99011V23.00085A2.00014 2.00014 0 0 0 50.99335 24.72913zM54 10.13971l10-5.825 10 5.825V21.85126l-10 5.825-10-5.825z"/><path d="M13 88.99841h4a2.00006 2.00006 0 0 0 0-4.00012H13a2.00006 2.00006 0 0 0 0 4.00012zM66 110.99933H62a2.00006 2.00006 0 0 0 0 4.00012h4a2.00006 2.00006 0 0 0 0-4.00012zM115 84.99829h-4a2.00006 2.00006 0 0 0 0 4.00012h4a2.00006 2.00006 0 0 0 0-4.00012z"/></svg>